ffmpeg started on 2025-04-30 at 17:45:30
Report written to "D:\Convert\FFMetrics\reports\ssim_report-6.txt"
Log level: 32
Command line:
ffmpeg -hide_banner -nostdin -i "G:\\\xc0\xed\xe8\xec\xe5\\\xce\xed\xe3\xee\xe8\xed\xe3\xe8\\!_37_\xc7\xe8\xec\xe0_2025\\JamClub\\\xcf\xee\xe4\xed\xff\xf2\xe8\xe5 \xf3\xf0\xee\xe2\xed\xff \xe2 \xee\xe4\xe8\xed\xee\xf7\xea\xf3\\\xd2\xc2-2\\JamClub_Ore_dake_Level_Up_na_Ken_Season_2_10_1080p_HEVC.mkv" -i "G:\\\xc0\xed\xe8\xec\xe5\\\xce\xed\xe3\xee\xe8\xed\xe3\xe8\\!_37_\xc7\xe8\xec\xe0_2025\\JamClub\\\xcf\xee\xe4\xed\xff\xf2\xe8\xe5 \xf3\xf0\xee\xe2\xed\xff \xe2 \xee\xe4\xe8\xed\xee\xf7\xea\xf3\\\xd2\xc2-2\\JamClub_Ore_dake_Level_Up_na_Ken_Season_2_10_1080p.mp4" -lavfi "[0:v]settb=AVTB,setpts=PTS-STARTPTS,format=pix_fmts=yuv420p10,fps=24000/1001,scale=1920:1080:flags=bicubic[main];[1:v]settb=AVTB,setpts=PTS-STARTPTS,format=pix_fmts=yuv420p,fps=24000/1001,scale=1920:1080:flags=bicubic[ref];[main][ref]ssim=eof_action=endall:stats_file='D\\:/Convert/FFMetrics/logs/ssim_logfile-6.txt'" -f null -
Input #0, matroska,webm, from 'G:\Аниме\Онгоинги\!_37_Зима_2025\JamClub\Поднятие уровня в одиночку\ТВ-2\JamClub_Ore_dake_Level_Up_na_Ken_Season_2_10_1080p_HEVC.mkv':
  Metadata:
    COMPATIBLE_BRANDS: isomiso2avc1mp41
    MAJOR_BRAND     : isom
    MINOR_VERSION   : 512
    ENCODER         : Lavf61.7.100
  Duration: 00:24:02.37, start: -0.001000, bitrate: 1681 kb/s
  Stream #0:0: Video: hevc (Main 10), yuv420p10le(tv, bt709, progressive), 1920x1080 [SAR 1:1 DAR 16:9], 23.98 fps, 23.98 tbr, 1k tbn (default)
      Metadata:
        HANDLER_NAME    : VideoHandler
        VENDOR_ID       : [0][0][0][0]
        ENCODER         : Lavc61.19.100 libx265
        BPS             : 1482146
        DURATION        : 00:24:02.232708333
        NUMBER_OF_FRAMES: 34579
        NUMBER_OF_BYTES : 267199851
        _STATISTICS_WRITING_APP: mkvpropedit v66.0.0 ('Josie') 64-bit
        _STATISTICS_WRITING_DATE_UTC: 2025-04-30 09:38:24
        _STATISTICS_TAGS: BPS DURATION NUMBER_OF_FRAMES NUMBER_OF_BYTES
  Stream #0:1(eng): Audio: aac (LC), 48000 Hz, stereo, fltp (default)
      Metadata:
        HANDLER_NAME    : SoundHandler
        VENDOR_ID       : [0][0][0][0]
        ENCODER         : Lavc61.19.100 aac
        BPS             : 195117
        DURATION        : 00:24:02.328000000
        NUMBER_OF_FRAMES: 67610
        NUMBER_OF_BYTES : 35177884
        _STATISTICS_WRITING_APP: mkvpropedit v66.0.0 ('Josie') 64-bit
        _STATISTICS_WRITING_DATE_UTC: 2025-04-30 09:38:24
        _STATISTICS_TAGS: BPS DURATION NUMBER_OF_FRAMES NUMBER_OF_BYTES
Input #1, mov,mp4,m4a,3gp,3g2,mj2, from 'G:\Аниме\Онгоинги\!_37_Зима_2025\JamClub\Поднятие уровня в одиночку\ТВ-2\JamClub_Ore_dake_Level_Up_na_Ken_Season_2_10_1080p.mp4':
  Metadata:
    major_brand     : isom
    minor_version   : 512
    compatible_brands: isomiso2avc1mp41
    encoder         : Lavf60.16.100
  Duration: 00:24:02.35, start: 0.000000, bitrate: 4979 kb/s
  Stream #1:0[0x1](und): Video: h264 (High) (avc1 / 0x31637661), yuv420p(progressive), 1920x1080 [SAR 1:1 DAR 16:9], 4781 kb/s, 23.98 fps, 23.98 tbr, 90k tbn (default)
      Metadata:
        handler_name    : VideoHandler
        vendor_id       : [0][0][0][0]
  Stream #1:1[0x2](eng): Audio: aac (LC) (mp4a / 0x6134706D), 48000 Hz, stereo, fltp, 191 kb/s (default)
      Metadata:
        handler_name    : SoundHandler
        vendor_id       : [0][0][0][0]
Stream mapping:
  Stream #0:0 (hevc) -> settb:default
  Stream #1:0 (h264) -> settb:default
  ssim:default -> Stream #0:0 (wrapped_avframe)
  Stream #0:1 -> #0:1 (aac (native) -> pcm_s16le (native))
Output #0, null, to 'pipe:':
  Metadata:
    COMPATIBLE_BRANDS: isomiso2avc1mp41
    MAJOR_BRAND     : isom
    MINOR_VERSION   : 512
    encoder         : Lavf61.7.100
  Stream #0:0: Video: wrapped_avframe, yuv420p10le(tv, bt709, progressive), 1920x1080 [SAR 1:1 DAR 16:9], q=2-31, 200 kb/s, 23.98 fps, 23.98 tbn
      Metadata:
        encoder         : Lavc61.19.100 wrapped_avframe
  Stream #0:1(eng): Audio: pcm_s16le, 48000 Hz, stereo, s16, 1536 kb/s (default)
      Metadata:
        HANDLER_NAME    : SoundHandler
        VENDOR_ID       : [0][0][0][0]
        _STATISTICS_TAGS: BPS DURATION NUMBER_OF_FRAMES NUMBER_OF_BYTES
        BPS             : 195117
        DURATION        : 00:24:02.328000000
        NUMBER_OF_FRAMES: 67610
        NUMBER_OF_BYTES : 35177884
        _STATISTICS_WRITING_APP: mkvpropedit v66.0.0 ('Josie') 64-bit
        _STATISTICS_WRITING_DATE_UTC: 2025-04-30 09:38:24
        encoder         : Lavc61.19.100 pcm_s16le
frame=  105 fps=0.0 q=-0.0 size=N/A time=00:00:04.37 bitrate=N/A speed=8.57x    frame=  260 fps=255 q=-0.0 size=N/A time=00:00:10.84 bitrate=N/A speed=10.6x    frame=  444 fps=288 q=-0.0 size=N/A time=00:00:18.51 bitrate=N/A speed=  12x    frame=  661 fps=322 q=-0.0 size=N/A time=00:00:27.56 bitrate=N/A speed=13.4x    frame=  898 fps=348 q=-0.0 size=N/A time=00:00:37.45 bitrate=N/A speed=14.5x    frame= 1121 fps=363 q=-0.0 size=N/A time=00:00:46.75 bitrate=N/A speed=15.2x    frame= 1314 fps=364 q=-0.0 size=N/A time=00:00:54.80 bitrate=N/A speed=15.2x    frame= 1513 fps=367 q=-0.0 size=N/A time=00:01:03.10 bitrate=N/A speed=15.3x    frame= 1720 fps=371 q=-0.0 size=N/A time=00:01:11.73 bitrate=N/A speed=15.5x    frame= 1909 fps=371 q=-0.0 size=N/A time=00:01:19.62 bitrate=N/A speed=15.5x    frame= 2074 fps=366 q=-0.0 size=N/A time=00:01:26.50 bitrate=N/A speed=15.3x    frame= 2246 fps=363 q=-0.0 size=N/A time=00:01:33.67 bitrate=N/A speed=15.2x    frame= 2428 fps=363 q=-0.0 size=N/A time=00:01:41.26 bitrate=N/A speed=15.1x    frame= 2608 fps=361 q=-0.0 size=N/A time=00:01:48.77 bitrate=N/A speed=15.1x    frame= 2785 fps=360 q=-0.0 size=N/A time=00:01:56.15 bitrate=N/A speed=  15x    frame= 2945 fps=357 q=-0.0 size=N/A time=00:02:02.83 bitrate=N/A speed=14.9x    frame= 3099 fps=354 q=-0.0 size=N/A time=00:02:09.25 bitrate=N/A speed=14.8x    frame= 3305 fps=356 q=-0.0 size=N/A time=00:02:17.84 bitrate=N/A speed=14.8x    frame= 3493 fps=357 q=-0.0 size=N/A time=00:02:25.68 bitrate=N/A speed=14.9x    frame= 3699 fps=359 q=-0.0 size=N/A time=00:02:34.27 bitrate=N/A speed=  15x    frame= 3883 fps=358 q=-0.0 size=N/A time=00:02:41.95 bitrate=N/A speed=14.9x    frame= 4084 fps=360 q=-0.0 size=N/A time=00:02:50.33 bitrate=N/A speed=  15x    frame= 4301 fps=362 q=-0.0 size=N/A time=00:02:59.38 bitrate=N/A speed=15.1x    frame= 4519 fps=365 q=-0.0 size=N/A time=00:03:08.47 bitrate=N/A speed=15.2x    frame= 4746 fps=368 q=-0.0 size=N/A time=00:03:17.94 bitrate=N/A speed=15.3x    frame= 4875 fps=363 q=-0.0 size=N/A time=00:03:23.32 bitrate=N/A speed=15.1x    frame= 5068 fps=364 q=-0.0 size=N/A time=00:03:31.37 bitrate=N/A speed=15.2x    frame= 5318 fps=368 q=-0.0 size=N/A time=00:03:41.80 bitrate=N/A speed=15.3x    frame= 5559 fps=371 q=-0.0 size=N/A time=00:03:51.85 bitrate=N/A speed=15.5x    frame= 5762 fps=372 q=-0.0 size=N/A time=00:04:00.32 bitrate=N/A speed=15.5x    frame= 5974 fps=373 q=-0.0 size=N/A time=00:04:09.16 bitrate=N/A speed=15.6x    frame= 6216 fps=376 q=-0.0 size=N/A time=00:04:19.25 bitrate=N/A speed=15.7x    frame= 6463 fps=379 q=-0.0 size=N/A time=00:04:29.56 bitrate=N/A speed=15.8x    frame= 6660 fps=379 q=-0.0 size=N/A time=00:04:37.77 bitrate=N/A speed=15.8x    frame= 6872 fps=380 q=-0.0 size=N/A time=00:04:46.61 bitrate=N/A speed=15.9x    frame= 7070 fps=380 q=-0.0 size=N/A time=00:04:54.87 bitrate=N/A speed=15.9x    frame= 7275 fps=381 q=-0.0 size=N/A time=00:05:03.42 bitrate=N/A speed=15.9x    frame= 7473 fps=381 q=-0.0 size=N/A time=00:05:11.68 bitrate=N/A speed=15.9x    frame= 7703 fps=382 q=-0.0 size=N/A time=00:05:21.27 bitrate=N/A speed=  16x    frame= 7925 fps=384 q=-0.0 size=N/A time=00:05:30.53 bitrate=N/A speed=  16x    frame= 8145 fps=385 q=-0.0 size=N/A time=00:05:39.71 bitrate=N/A speed=16.1x    frame= 8377 fps=386 q=-0.0 size=N/A time=00:05:49.39 bitrate=N/A speed=16.1x    frame= 8575 fps=386 q=-0.0 size=N/A time=00:05:57.64 bitrate=N/A speed=16.1x    frame= 8830 fps=389 q=-0.0 size=N/A time=00:06:08.28 bitrate=N/A speed=16.2x    frame= 9061 fps=390 q=-0.0 size=N/A time=00:06:17.91 bitrate=N/A speed=16.3x    frame= 9302 fps=392 q=-0.0 size=N/A time=00:06:27.97 bitrate=N/A speed=16.3x    frame= 9578 fps=395 q=-0.0 size=N/A time=00:06:39.48 bitrate=N/A speed=16.5x    frame= 9843 fps=397 q=-0.0 size=N/A time=00:06:50.53 bitrate=N/A speed=16.6x    frame=10052 fps=398 q=-0.0 size=N/A time=00:06:59.25 bitrate=N/A speed=16.6x    frame=10323 fps=400 q=-0.0 size=N/A time=00:07:10.55 bitrate=N/A speed=16.7x    frame=10569 fps=401 q=-0.0 size=N/A time=00:07:20.81 bitrate=N/A speed=16.7x    frame=10802 fps=402 q=-0.0 size=N/A time=00:07:30.53 bitrate=N/A speed=16.8x    frame=11039 fps=404 q=-0.0 size=N/A time=00:07:40.41 bitrate=N/A speed=16.8x    frame=11300 fps=405 q=-0.0 size=N/A time=00:07:51.30 bitrate=N/A speed=16.9x    frame=11555 fps=407 q=-0.0 size=N/A time=00:08:01.93 bitrate=N/A speed=  17x    frame=11830 fps=409 q=-0.0 size=N/A time=00:08:13.40 bitrate=N/A speed=17.1x    frame=12078 fps=411 q=-0.0 size=N/A time=00:08:23.75 bitrate=N/A speed=17.1x    frame=12320 fps=412 q=-0.0 size=N/A time=00:08:33.84 bitrate=N/A speed=17.2x    frame=12524 fps=411 q=-0.0 size=N/A time=00:08:42.35 bitrate=N/A speed=17.2x    frame=12743 fps=412 q=-0.0 size=N/A time=00:08:51.48 bitrate=N/A speed=17.2x    frame=12893 fps=410 q=-0.0 size=N/A time=00:08:57.74 bitrate=N/A speed=17.1x    frame=13083 fps=409 q=-0.0 size=N/A time=00:09:05.67 bitrate=N/A speed=17.1x    frame=13307 fps=409 q=-0.0 size=N/A time=00:09:15.01 bitrate=N/A speed=17.1x    frame=13520 fps=409 q=-0.0 size=N/A time=00:09:23.89 bitrate=N/A speed=17.1x    frame=13785 fps=411 q=-0.0 size=N/A time=00:09:34.94 bitrate=N/A speed=17.1x    frame=14039 fps=412 q=-0.0 size=N/A time=00:09:45.54 bitrate=N/A speed=17.2x    frame=14269 fps=413 q=-0.0 size=N/A time=00:09:55.13 bitrate=N/A speed=17.2x    frame=14493 fps=413 q=-0.0 size=N/A time=00:10:04.47 bitrate=N/A speed=17.2x    frame=14713 fps=413 q=-0.0 size=N/A time=00:10:13.65 bitrate=N/A speed=17.2x    frame=14948 fps=414 q=-0.0 size=N/A time=00:10:23.45 bitrate=N/A speed=17.3x    frame=15184 fps=415 q=-0.0 size=N/A time=00:10:33.29 bitrate=N/A speed=17.3x    frame=15381 fps=414 q=-0.0 size=N/A time=00:10:41.51 bitrate=N/A speed=17.3x    frame=15620 fps=415 q=-0.0 size=N/A time=00:10:51.48 bitrate=N/A speed=17.3x    frame=15890 fps=416 q=-0.0 size=N/A time=00:11:02.74 bitrate=N/A speed=17.4x    frame=16145 fps=417 q=-0.0 size=N/A time=00:11:13.38 bitrate=N/A speed=17.4x    frame=16411 fps=418 q=-0.0 size=N/A time=00:11:24.47 bitrate=N/A speed=17.5x    frame=16644 fps=419 q=-0.0 size=N/A time=00:11:34.19 bitrate=N/A speed=17.5x    frame=16908 fps=420 q=-0.0 size=N/A time=00:11:45.20 bitrate=N/A speed=17.5x    frame=17148 fps=421 q=-0.0 size=N/A time=00:11:55.21 bitrate=N/A speed=17.5x    frame=17403 fps=422 q=-0.0 size=N/A time=00:12:05.85 bitrate=N/A speed=17.6x    frame=17650 fps=422 q=-0.0 size=N/A time=00:12:16.15 bitrate=N/A speed=17.6x    frame=17888 fps=423 q=-0.0 size=N/A time=00:12:26.07 bitrate=N/A speed=17.6x    frame=18090 fps=423 q=-0.0 size=N/A time=00:12:34.50 bitrate=N/A speed=17.6x    frame=18308 fps=422 q=-0.0 size=N/A time=00:12:43.59 bitrate=N/A speed=17.6x    frame=18531 fps=423 q=-0.0 size=N/A time=00:12:52.89 bitrate=N/A speed=17.6x    frame=18700 fps=421 q=-0.0 size=N/A time=00:12:59.94 bitrate=N/A speed=17.6x    frame=18929 fps=422 q=-0.0 size=N/A time=00:13:09.49 bitrate=N/A speed=17.6x    frame=19151 fps=422 q=-0.0 size=N/A time=00:13:18.75 bitrate=N/A speed=17.6x    frame=19362 fps=422 q=-0.0 size=N/A time=00:13:27.55 bitrate=N/A speed=17.6x    frame=19577 fps=422 q=-0.0 size=N/A time=00:13:36.56 bitrate=N/A speed=17.6x    frame=19825 fps=422 q=-0.0 size=N/A time=00:13:46.86 bitrate=N/A speed=17.6x    frame=20070 fps=423 q=-0.0 size=N/A time=00:13:57.08 bitrate=N/A speed=17.6x    frame=20312 fps=423 q=-0.0 size=N/A time=00:14:07.17 bitrate=N/A speed=17.7x    frame=20573 fps=424 q=-0.0 size=N/A time=00:14:18.06 bitrate=N/A speed=17.7x    frame=20785 fps=424 q=-0.0 size=N/A time=00:14:26.90 bitrate=N/A speed=17.7x    frame=21036 fps=425 q=-0.0 size=N/A time=00:14:37.37 bitrate=N/A speed=17.7x    frame=21254 fps=425 q=-0.0 size=N/A time=00:14:46.46 bitrate=N/A speed=17.7x    frame=21514 fps=426 q=-0.0 size=N/A time=00:14:57.31 bitrate=N/A speed=17.7x    frame=21769 fps=426 q=-0.0 size=N/A time=00:15:07.94 bitrate=N/A speed=17.8x    frame=22007 fps=427 q=-0.0 size=N/A time=00:15:17.87 bitrate=N/A speed=17.8x    frame=22261 fps=427 q=-0.0 size=N/A time=00:15:28.46 bitrate=N/A speed=17.8x    frame=22520 fps=428 q=-0.0 size=N/A time=00:15:39.27 bitrate=N/A speed=17.8x    frame=22769 fps=429 q=-0.0 size=N/A time=00:15:49.65 bitrate=N/A speed=17.9x    frame=23023 fps=429 q=-0.0 size=N/A time=00:16:00.25 bitrate=N/A speed=17.9x    frame=23252 fps=429 q=-0.0 size=N/A time=00:16:09.80 bitrate=N/A speed=17.9x    frame=23513 fps=430 q=-0.0 size=N/A time=00:16:20.68 bitrate=N/A speed=17.9x    frame=23760 fps=430 q=-0.0 size=N/A time=00:16:30.99 bitrate=N/A speed=  18x    frame=24009 fps=431 q=-0.0 size=N/A time=00:16:41.37 bitrate=N/A speed=  18x    frame=24263 fps=432 q=-0.0 size=N/A time=00:16:51.96 bitrate=N/A speed=  18x    frame=24492 fps=432 q=-0.0 size=N/A time=00:17:01.52 bitrate=N/A speed=  18x    frame=24706 fps=431 q=-0.0 size=N/A time=00:17:10.44 bitrate=N/A speed=  18x    frame=24964 fps=432 q=-0.0 size=N/A time=00:17:21.20 bitrate=N/A speed=  18x    frame=25221 fps=433 q=-0.0 size=N/A time=00:17:31.92 bitrate=N/A speed=  18x    frame=25493 fps=433 q=-0.0 size=N/A time=00:17:43.27 bitrate=N/A speed=18.1x    frame=25763 fps=434 q=-0.0 size=N/A time=00:17:54.53 bitrate=N/A speed=18.1x    frame=26020 fps=435 q=-0.0 size=N/A time=00:18:05.25 bitrate=N/A speed=18.1x    frame=26251 fps=435 q=-0.0 size=N/A time=00:18:14.88 bitrate=N/A speed=18.1x    frame=26470 fps=435 q=-0.0 size=N/A time=00:18:24.01 bitrate=N/A speed=18.1x    frame=26691 fps=435 q=-0.0 size=N/A time=00:18:33.23 bitrate=N/A speed=18.1x    frame=26909 fps=435 q=-0.0 size=N/A time=00:18:42.32 bitrate=N/A speed=18.1x    frame=27115 fps=434 q=-0.0 size=N/A time=00:18:50.92 bitrate=N/A speed=18.1x    frame=27315 fps=434 q=-0.0 size=N/A time=00:18:59.26 bitrate=N/A speed=18.1x    frame=27548 fps=434 q=-0.0 size=N/A time=00:19:08.98 bitrate=N/A speed=18.1x    frame=27781 fps=434 q=-0.0 size=N/A time=00:19:18.69 bitrate=N/A speed=18.1x    frame=28013 fps=434 q=-0.0 size=N/A time=00:19:28.37 bitrate=N/A speed=18.1x    frame=28259 fps=435 q=-0.0 size=N/A time=00:19:38.63 bitrate=N/A speed=18.1x    frame=28468 fps=434 q=-0.0 size=N/A time=00:19:47.35 bitrate=N/A speed=18.1x    frame=28674 fps=434 q=-0.0 size=N/A time=00:19:55.94 bitrate=N/A speed=18.1x    frame=28920 fps=434 q=-0.0 size=N/A time=00:20:06.20 bitrate=N/A speed=18.1x    frame=29109 fps=434 q=-0.0 size=N/A time=00:20:14.08 bitrate=N/A speed=18.1x    frame=29342 fps=434 q=-0.0 size=N/A time=00:20:23.80 bitrate=N/A speed=18.1x    frame=29550 fps=434 q=-0.0 size=N/A time=00:20:32.48 bitrate=N/A speed=18.1x    frame=29812 fps=434 q=-0.0 size=N/A time=00:20:43.40 bitrate=N/A speed=18.1x    frame=30002 fps=434 q=-0.0 size=N/A time=00:20:51.33 bitrate=N/A speed=18.1x    frame=30228 fps=434 q=-0.0 size=N/A time=00:21:00.75 bitrate=N/A speed=18.1x    frame=30445 fps=434 q=-0.0 size=N/A time=00:21:09.81 bitrate=N/A speed=18.1x    frame=30648 fps=434 q=-0.0 size=N/A time=00:21:18.27 bitrate=N/A speed=18.1x    frame=30877 fps=434 q=-0.0 size=N/A time=00:21:27.82 bitrate=N/A speed=18.1x    frame=31118 fps=434 q=-0.0 size=N/A time=00:21:37.87 bitrate=N/A speed=18.1x    frame=31380 fps=434 q=-0.0 size=N/A time=00:21:48.80 bitrate=N/A speed=18.1x    frame=31605 fps=434 q=-0.0 size=N/A time=00:21:58.19 bitrate=N/A speed=18.1x    frame=31851 fps=435 q=-0.0 size=N/A time=00:22:08.45 bitrate=N/A speed=18.1x    frame=32099 fps=435 q=-0.0 size=N/A time=00:22:18.79 bitrate=N/A speed=18.1x    frame=32308 fps=435 q=-0.0 size=N/A time=00:22:27.51 bitrate=N/A speed=18.1x    frame=32514 fps=435 q=-0.0 size=N/A time=00:22:36.10 bitrate=N/A speed=18.1x    frame=32711 fps=434 q=-0.0 size=N/A time=00:22:44.32 bitrate=N/A speed=18.1x    frame=32933 fps=434 q=-0.0 size=N/A time=00:22:53.58 bitrate=N/A speed=18.1x    frame=33127 fps=434 q=-0.0 size=N/A time=00:23:01.67 bitrate=N/A speed=18.1x    frame=33344 fps=434 q=-0.0 size=N/A time=00:23:10.72 bitrate=N/A speed=18.1x    frame=33521 fps=433 q=-0.0 size=N/A time=00:23:18.10 bitrate=N/A speed=18.1x    frame=33684 fps=432 q=-0.0 size=N/A time=00:23:24.90 bitrate=N/A speed=  18x    frame=33862 fps=432 q=-0.0 size=N/A time=00:23:32.32 bitrate=N/A speed=  18x    frame=34053 fps=431 q=-0.0 size=N/A time=00:23:40.29 bitrate=N/A speed=  18x    frame=34253 fps=431 q=-0.0 size=N/A time=00:23:48.63 bitrate=N/A speed=  18x    frame=34470 fps=431 q=-0.0 size=N/A time=00:23:57.68 bitrate=N/A speed=  18x    [Parsed_ssim_10 @ 000002e9b4082180] SSIM Y:0.993196 (21.672590) U:0.993365 (21.781653) V:0.993541 (21.898661) All:0.993282 (21.727603)
[out#0/null @ 000002e9b396ec00] video:14858KiB audio:270440KiB subtitle:0KiB other streams:0KiB global headers:0KiB muxing overhead: unknown
frame=34579 fps=430 q=-0.0 Lsize=N/A time=00:24:02.23 bitrate=N/A speed=17.9x    
